<svg xmlns="http://www.w3.org/2000/svg" class="w-full max-w-[600px] h-full max-h-[600px] aspect-square z-10 p-4" width="547.016" height="128" xmlns:v="https://vecta.io/nano"><g transform="matrix(.172054 .046102 -.046102 .172054 59.378664 62.001845)"><use href="#B"/><use href="#C"/><g transform="rotate(72)"><use href="#B"/><use href="#C"/></g><g transform="rotate(144)"><use href="#B"/><use href="#C"/></g><g transform="rotate(216)"><use href="#B"/><use href="#C"/></g><g transform="rotate(288)"><use href="#B"/><use href="#C"/></g></g><g fill="#211c1d"><path d="M193.224 57.728q0 7.104-2.368 12.416-2.304 5.248-7.104 8.192-4.8 2.944-12.288 2.944-7.424 0-12.288-2.944-4.8-2.944-7.168-8.256-2.304-5.312-2.304-12.416 0-7.104 2.304-12.352 2.368-5.248 7.168-8.128 4.864-2.944 12.352-2.944 7.424 0 12.224 2.944 4.8 2.88 7.104 8.192 2.368 5.248 2.368 12.352zm-33.344 0q0 7.168 2.752 11.328 2.752 4.096 8.832 4.096 6.208 0 8.896-4.096 2.688-4.16 2.688-11.328 0-7.232-2.688-11.328-2.688-4.096-8.832-4.096-6.144 0-8.896 4.096-2.752 4.096-2.752 11.328z"/><use href="#D"/><path d="M256.84 45.056q7.232 0 11.456 4.16 4.224 4.096 4.224 11.712v4.608h-22.528q.128 4.032 2.368 6.336 2.304 2.304 6.336 2.304 3.392 0 6.144-.64 2.752-.704 5.696-2.112v7.36q-2.56 1.28-5.44 1.856-2.816.64-6.848.64-5.248 0-9.28-1.92-4.032-1.984-6.336-5.952-2.304-3.968-2.304-9.984 0-6.144 2.048-10.176 2.112-4.096 5.824-6.144 3.712-2.048 8.64-2.048zm.064 6.784q-2.752 0-4.608 1.792-1.792 1.792-2.112 5.568h13.376q-.064-3.2-1.664-5.248-1.6-2.112-4.992-2.112zm43.2-6.784q5.632 0 9.024 3.072 3.392 3.008 3.392 9.728V80.64h-9.536V60.224q0-3.776-1.344-5.632-1.344-1.92-4.288-1.92-4.352 0-5.952 3.008-1.6 2.944-1.6 8.512V80.64h-9.536V45.696h7.296l1.28 4.48h.512q1.664-2.688 4.544-3.904 2.944-1.216 6.208-1.216zM340.68 80.64h-9.664V43.008H318.6v-8.064h34.496v8.064H340.68zm28.608-35.584q7.232 0 11.456 4.16 4.224 4.096 4.224 11.712v4.608H362.44q.128 4.032 2.368 6.336 2.304 2.304 6.336 2.304 3.392 0 6.144-.64 2.752-.704 5.696-2.112v7.36q-2.56 1.28-5.44 1.856-2.816.64-6.848.64-5.248 0-9.28-1.92-4.032-1.984-6.336-5.952-2.304-3.968-2.304-9.984 0-6.144 2.048-10.176 2.112-4.096 5.824-6.144 3.712-2.048 8.64-2.048zm.064 6.784q-2.752 0-4.608 1.792-1.792 1.792-2.112 5.568h13.376q-.064-3.2-1.664-5.248-1.6-2.112-4.992-2.112zm64.384-6.784q5.952 0 8.96 3.072 3.072 3.008 3.072 9.728V80.64h-9.536V60.224q0-7.552-5.248-7.552-3.776 0-5.376 2.688-1.6 2.688-1.6 7.744V80.64h-9.536V60.224q0-7.552-5.248-7.552-3.968 0-5.504 3.008-1.472 2.944-1.472 8.512V80.64h-9.536V45.696h7.296l1.28 4.48h.512q1.6-2.688 4.352-3.904 2.816-1.216 5.824-1.216 3.84 0 6.528 1.28 2.688 1.216 4.096 3.84h.832q1.6-2.688 4.416-3.904 2.88-1.216 5.888-1.216z"/><use href="#D" x="253.632"/><path d="M505.608 80.64h-9.536V32h9.536zm4.992-34.944h10.432l6.592 19.648q.512 1.408.768 2.944.256 1.472.384 3.136h.192q.192-1.664.512-3.136.384-1.536.832-2.944l6.464-19.648h10.24L532.232 85.12q-1.984 5.44-5.824 8.128Q522.632 96 517.64 96q-1.6 0-2.816-.192-1.152-.128-2.048-.32v-7.552q.704.128 1.664.256 1.024.128 2.112.128 3.008 0 4.736-1.856 1.792-1.792 2.624-4.352l.576-1.728z"/></g><defs ><path id="B" d="M-.377-7.49A7.501 7.501 0 0 0-7.484-.479c-4.264 66.799-11.826 133.22-22.686 199.262a7.501 7.501 0 0 0 1.307 5.59l93.301 130a7.501 7.501 0 0 0 6.092 3.127h100.49a7.501 7.501 0 0 0 6.094-3.127l93.301-130a7.501 7.501 0 0 0-1.752-10.488A5482.56 5482.56 0 0 1 4.703-5.842 7.501 7.501 0 0 0-.377-7.49zm6.781 22.139C87.138 79.317 169.61 141.69 253.865 201.705L167.172 322.5H74.379l-89.275-124.393C-4.99 137.277 2.05 76.116 6.404 14.648z"/><path id="C" d="M120.77 252.5a7.501 7.501 0 0 0-6.092 3.127l-50.24 70a7.501 7.501 0 0 0 6.092 11.873h100.49a7.501 7.501 0 0 0 6.094-11.873l-50.25-70a7.501 7.501 0 0 0-6.094-3.127zm.002 20.361l35.633 49.639h-71.26z"/><path id="D" d="M221.384 45.056q5.888 0 9.536 4.608 3.648 4.544 3.648 13.44 0 8.896-3.776 13.568-3.776 4.608-9.664 4.608-3.776 0-6.016-1.344-2.24-1.408-3.648-3.136h-.512q.512 2.688.512 5.12V96h-9.536V45.696h7.744l1.344 4.544h.448q1.408-2.112 3.776-3.648 2.368-1.536 6.144-1.536zm-3.072 7.616q-3.712 0-5.248 2.304-1.472 2.304-1.6 7.04v1.024q0 5.056 1.472 7.808 1.536 2.688 5.504 2.688 3.264 0 4.8-2.688 1.6-2.752 1.6-7.872 0-10.304-6.528-10.304z"/></defs></svg>
