<svg xmlns="http://www.w3.org/2000/svg" width="128" height="128" xmlns:v="https://vecta.io/nano"><path d="M64.68 47.626H20.654a2.093 2.093 0 0 1-2.038-2.038 2.093 2.093 0 0 1 2.038-2.038H64.68a2.093 2.093 0 0 1 2.038 2.038 1.997 1.997 0 0 1-2.038 2.038zm10.055 12.229H20.654a2.093 2.093 0 0 1-2.038-2.038 2.093 2.093 0 0 1 2.038-2.038h54.081a2.093 2.093 0 0 1 2.038 2.038 2.093 2.093 0 0 1-2.038 2.038zM61.691 72.22H20.654a2.093 2.093 0 0 1-2.038-2.038 2.093 2.093 0 0 1 2.038-2.038h41.036a2.093 2.093 0 0 1 2.038 2.038 1.997 1.997 0 0 1-2.038 2.038zm7.338 12.229H20.654a2.093 2.093 0 0 1-2.038-2.038 2.093 2.093 0 0 1 2.038-2.038h48.374a2.093 2.093 0 0 1 2.038 2.038 2.093 2.093 0 0 1-2.038 2.038zM13.525 27.107A13.493 13.493 0 0 0 0 40.632v46.737a13.493 13.493 0 0 0 13.524 13.524h100.951A13.493 13.493 0 0 0 128 87.368V40.632a13.493 13.493 0 0 0-13.524-13.524zm.44 4.076h100.07a9.865 9.865 0 0 1 9.888 9.888v45.855a9.865 9.865 0 0 1-9.888 9.888H13.966a9.865 9.865 0 0 1-9.888-9.888V41.072a9.865 9.865 0 0 1 9.888-9.888z" fill="#211c1d"/></svg>
