<svg xmlns="http://www.w3.org/2000/svg" width="128" height="127.968" fill="#211c1d" xmlns:v="https://vecta.io/nano"><path d="M64.237 23.934l-33.771 1.234c-2.768.102-5.193 2.516-5.292 5.274l-1.233 33.642c-.052 1.448.538 2.78 1.62 3.656a2.09 2.09 0 0 1 .144.129l54.608 54.609c2.313 2.315 6.395 2.314 8.706 0l33.484-33.482c2.402-2.4 2.402-6.308 0-8.709L67.591 25.375l-.251-.253c-.749-.749-1.922-1.188-3.103-1.188zm20.429 104.033a9.78 9.78 0 0 1-6.966-2.877L23.155 70.548c-1.942-1.616-3.001-4.013-2.907-6.598l1.232-33.642c.171-4.698 4.142-8.66 8.85-8.833l33.907-1.236c2.157 0 4.279.836 5.676 2.231a8.63 8.63 0 0 1 .326.326l54.878 54.878a9.87 9.87 0 0 1 0 13.934L91.634 125.09c-1.855 1.855-4.329 2.877-6.968 2.877m-41.62-91.602c-1.784 0-3.46.696-4.72 1.955a6.69 6.69 0 0 0 0 9.445c2.522 2.519 6.918 2.519 9.441 0a6.69 6.69 0 0 0 0-9.445c-1.262-1.26-2.937-1.955-4.721-1.955zm0 17.049a10.31 10.31 0 0 1-7.335-3.039c-4.043-4.043-4.043-10.622 0-14.667 1.959-1.959 4.565-3.039 7.335-3.039s5.376 1.08 7.335 3.039c4.044 4.045 4.044 10.624 0 14.667-1.958 1.959-4.564 3.039-7.335 3.039"/><path d="M68.3 61.644L49.958 79.986c-.005.007-.012.01-.017.017s-.013.014-.022.022l-.153.155.004.005a1.82 1.82 0 0 0-.008 2.611c.421.423.808.604 1.195.604.447 0 .891-.243 1.383-.645l.038.037.177-.176c.061-.061.117-.126.168-.192l.959-.936 17.143-17.142zm-8.066 30.882c-.708 0-1.205-.465-1.288-.546-.905-.907-.71-1.657.039-2.577l-.037-.037.178-.18a1.87 1.87 0 0 1 .193-.168l.935-.959 29.115-29.116a1.85 1.85 0 0 1 2.614 0 1.85 1.85 0 0 1 0 2.613L61.741 91.798l-.182.18-.007-.005c-.48.414-.931.553-1.319.553m9.093 9.242c-.387 0-.774-.183-1.195-.604-.129-.129-1.173-1.247.01-2.613l-.005-.005c.008-.011.058-.058.142-.143l.031-.032.024-.024 30.222-30.22 2.614 2.611L72.05 99.856l-.961.935a1.74 1.74 0 0 1-.166.192l-.174.175-.038-.038c-.494.402-.939.647-1.385.647m9.276 9.129c-.708 0-1.205-.465-1.289-.549-.906-.908-.709-1.658.041-2.578l-.038-.037.176-.177a1.61 1.61 0 0 1 .194-.168l.933-.959 29.116-29.118c.723-.72 1.891-.72 2.615 0a1.85 1.85 0 0 1 0 2.614L80.123 110.15c-.007.005-.012.012-.017.019s-.015.014-.024.021l-.153.155-.007-.005c-.482.418-.934.557-1.322.557M40.287 45.833c-1.624 0-3.736-.455-6.474-1.684a1.85 1.85 0 0 1-.928-2.443 1.85 1.85 0 0 1 2.443-.929c3.752 1.684 5.799 1.569 6.411.958 1.724-1.724-1.521-11.405-13.877-23.761S5.821 2.376 4.103 4.098c-.81.809-.566 3.64 1.804 8.146 2.536 4.821 6.824 10.366 12.072 15.615a86.16 86.16 0 0 0 6.366 5.775 1.85 1.85 0 0 1 .261 2.599 1.85 1.85 0 0 1-2.6.261c-2.254-1.843-4.489-3.87-6.641-6.022C9.862 24.968 5.342 19.105 2.637 13.965-1.246 6.585-.131 3.105 1.488 1.486c4.965-4.96 18.336 3.225 28.988 13.877S49.313 39.39 44.353 44.348c-.789.789-2.055 1.485-4.066 1.485"/></svg>