<svg xmlns="http://www.w3.org/2000/svg" width="128" height="73.785" xmlns:v="https://vecta.io/nano"><path d="M77.204 58.891h-32.4a1.54 1.54 0 0 1-1.5-1.5 1.54 1.54 0 0 1 1.5-1.5h32.4a1.54 1.54 0 0 1 1.5 1.5 1.47 1.47 0 0 1-1.5 1.5zm7.4 9h-39.8a1.54 1.54 0 0 1-1.5-1.5 1.54 1.54 0 0 1 1.5-1.5h39.8a1.54 1.54 0 0 1 1.5 1.5 1.54 1.54 0 0 1-1.5 1.5zm-9.6 9.1h-30.2a1.54 1.54 0 0 1-1.5-1.5 1.54 1.54 0 0 1 1.5-1.5h30.2a1.54 1.54 0 0 1 1.5 1.5 1.47 1.47 0 0 1-1.5 1.5zm5.4 9h-35.6a1.54 1.54 0 0 1-1.5-1.5 1.54 1.54 0 0 1 1.5-1.5h35.6a1.54 1.54 0 0 1 1.5 1.5 1.54 1.54 0 0 1-1.5 1.5zm-40.847-42.2a9.93 9.93 0 0 0-9.953 9.953v34.395a9.93 9.93 0 0 0 9.953 9.953h74.293a9.93 9.93 0 0 0 9.953-9.953V53.744a9.93 9.93 0 0 0-9.953-9.953zm.324 3h73.645a7.26 7.26 0 0 1 7.277 7.277v33.746a7.26 7.26 0 0 1-7.277 7.277H39.882a7.26 7.26 0 0 1-7.277-7.277V54.068a7.26 7.26 0 0 1 7.277-7.277z" transform="matrix(1.358822 0 0 1.358822 -40.227017 -59.503562)" fill="#211c1d"/></svg>